<?xml version="1.0" encoding="UTF-8"?>
<!--
  Godyar Icons Sprite
  Purpose: lightweight SVG symbol sprite to satisfy <use href="/assets/icons/godyar-icons.svg#...">
  Notes:
  - Uses simple, neutral glyphs (letters) to avoid trademark artwork issues.
  - You can replace symbols later with your own SVG paths while keeping the same IDs.
-->
<svg xmlns="http://www.w3.org/2000/svg" style="display:none">
  <defs>
    <!-- Generic helpers -->
    <symbol id="icon-circle" viewBox="0 0 24 24">
      <circle cx="12" cy="12" r="10" fill="currentColor"/>
    </symbol>

    <!-- Social / common icons (placeholders) -->
    <symbol id="facebook" viewBox="0 0 24 24">
      <circle cx="12" cy="12" r="10" fill="currentColor"/>
      <path d="M13.2 7.2h1.9V5h-2.3c-2.2 0-3.6 1.4-3.6 3.6V10H7.5v2.2h1.7V19h2.3v-6.8h2l.4-2.2h-2.4V8.8c0-.9.5-1.6 1.7-1.6Z" fill="#fff"/>
    </symbol>

    <symbol id="x" viewBox="0 0 24 24">
      <circle cx="12" cy="12" r="10" fill="currentColor"/>
      <path d="M8 17.5 10.9 13 8.2 6.5h2.2l1.6 4 2.6-4h2.2l-3.7 5.6 3.7 5.4h-2.2l-2.2-3.4-2.1 3.4H8Z" fill="#fff"/>
    </symbol>
    <symbol id="twitter" viewBox="0 0 24 24">
      <!-- alias to x -->
      <use href="#x"/>
    </symbol>

    <symbol id="instagram" viewBox="0 0 24 24">
      <circle cx="12" cy="12" r="10" fill="currentColor"/>
      <rect x="7.5" y="7.5" width="9" height="9" rx="2.2" fill="none" stroke="#fff" stroke-width="1.8"/>
      <circle cx="12" cy="12" r="2.2" fill="none" stroke="#fff" stroke-width="1.8"/>
      <circle cx="15.1" cy="8.9" r="0.9" fill="#fff"/>
    </symbol>

    <symbol id="youtube" viewBox="0 0 24 24">
      <circle cx="12" cy="12" r="10" fill="currentColor"/>
      <path d="M9.5 9.4v5.2l5-2.6-5-2.6Z" fill="#fff"/>
      <rect x="7.6" y="8.7" width="8.8" height="6.6" rx="2" fill="none" stroke="#fff" stroke-width="1.4"/>
    </symbol>

    <symbol id="telegram" viewBox="0 0 24 24">
      <circle cx="12" cy="12" r="10" fill="currentColor"/>
      <path d="M7.9 12.2 16.8 8.5c.4-.2.8.2.7.6l-1.6 7.9c-.1.5-.6.7-1 .4l-2.4-1.8-1.2 1.2c-.2.2-.6.2-.7-.1l-.8-2.7-1.9-.6c-.5-.2-.5-.9 0-1Z" fill="#fff"/>
    </symbol>

    <symbol id="whatsapp" viewBox="0 0 24 24">
      <circle cx="12" cy="12" r="10" fill="currentColor"/>
      <path d="M12 7.5a4.6 4.6 0 0 0-3.9 7l-.4 2.1 2.1-.4A4.6 4.6 0 1 0 12 7.5Z" fill="none" stroke="#fff" stroke-width="1.6" />
      <path d="M10.7 10.7c.2-.2.4-.2.6 0l.7.7c.2.2.2.5 0 .7l-.3.3c.4.7 1 1.2 1.7 1.6l.3-.3c.2-.2.5-.2.7 0l.7.7c.2.2.2.4 0 .6-.6.7-1.8.5-3-.2-1.2-.7-2.3-1.8-3-3-.7-1.2-.9-2.4-.2-3Z" fill="#fff"/>
    </symbol>

    <symbol id="tiktok" viewBox="0 0 24 24">
      <circle cx="12" cy="12" r="10" fill="currentColor"/>
      <path d="M13.4 7.2c.7 1.4 1.8 2.2 3.4 2.4v2c-1.4-.1-2.6-.6-3.4-1.4V14c0 1.9-1.5 3.4-3.4 3.4S6.6 15.9 6.6 14s1.5-3.4 3.4-3.4c.2 0 .4 0 .6.1v2.1c-.2-.1-.4-.1-.6-.1-.7 0-1.3.6-1.3 1.3s.6 1.3 1.3 1.3 1.3-.6 1.3-1.3V7.2h2.1Z" fill="#fff"/>
    </symbol>

    <symbol id="linkedin" viewBox="0 0 24 24">
      <circle cx="12" cy="12" r="10" fill="currentColor"/>
      <rect x="8.2" y="10.2" width="1.7" height="6" fill="#fff"/>
      <circle cx="9.05" cy="8.6" r="0.9" fill="#fff"/>
      <path d="M11 10.2h1.6v.9c.4-.7 1.1-1.1 2.1-1.1 1.6 0 2.5 1 2.5 2.8v3.4H15.6v-3c0-.9-.3-1.4-1.1-1.4-.7 0-1.1.5-1.1 1.4v3H11v-6Z" fill="#fff"/>
    </symbol>

    <!-- Generic UI icons used sometimes -->
    <symbol id="search" viewBox="0 0 24 24">
      <path d="M10.5 18a7.5 7.5 0 1 1 5.1-13 7.5 7.5 0 0 1-5.1 13Zm0-2a5.5 5.5 0 1 0 0-11 5.5 5.5 0 0 0 0 11Zm7.8 3.4-3.2-3.2 1.4-1.4 3.2 3.2-1.4 1.4Z" fill="currentColor"/>
    </symbol>

    <symbol id="menu" viewBox="0 0 24 24">
      <path d="M5 7h14v2H5V7Zm0 5h14v2H5v-2Zm0 5h14v2H5v-2Z" fill="currentColor"/>
    </symbol>

	    <symbol id="bookmark" viewBox="0 0 24 24">
	      <!-- simple bookmark icon -->
	      <path d="M7 3h10a2 2 0 0 1 2 2v17l-7-4-7 4V5a2 2 0 0 1 2-2Z" fill="currentColor"/>
	    </symbol>

    <symbol id="close" viewBox="0 0 24 24">
      <path d="M6.4 5 5 6.4 10.6 12 5 17.6 6.4 19 12 13.4 17.6 19 19 17.6 13.4 12 19 6.4 17.6 5 12 10.6 6.4 5Z" fill="currentColor"/>
    </symbol>
  </defs>

  <!-- Added by R36: core UI icons -->
  <symbol id="home" viewBox="0 0 24 24">
    <path d="M12 3 3 10v11h6v-7h6v7h6V10l-9-7z"></path>
  </symbol>
  <symbol id="user" viewBox="0 0 24 24">
    <path d="M12 12a5 5 0 1 0-5-5 5 5 0 0 0 5 5zm0 2c-5 0-9 2.5-9 5.5V22h18v-2.5C21 16.5 17 14 12 14z"></path>
  </symbol>
  <symbol id="globe" viewBox="0 0 24 24">
    <path d="M12 2a10 10 0 1 0 10 10A10 10 0 0 0 12 2zm7.7 9H17.3a15.3 15.3 0 0 0-1.4-6A8.1 8.1 0 0 1 19.7 11zM12 4c1.2 1.6 2.1 4 2.5 7H9.5c.4-3 1.3-5.4 2.5-7zM4.3 13h2.4a15.3 15.3 0 0 0 1.4 6A8.1 8.1 0 0 1 4.3 13zm2.4-2H4.3A8.1 8.1 0 0 1 8.1 5a15.3 15.3 0 0 0-1.4 6zM12 20c-1.2-1.6-2.1-4-2.5-7h5c-.4 3-1.3 5.4-2.5 7zm3.9-1a15.3 15.3 0 0 0 1.4-6h2.4a8.1 8.1 0 0 1-3.8 6z"></path>
  </symbol>
  <symbol id="chevron-down" viewBox="0 0 24 24">
    <path d="M6 9l6 6 6-6"></path>
  </symbol>
  <symbol id="tag" viewBox="0 0 24 24">
    <path d="M20 10.6 12.4 3H4v8.4L11.6 19a2 2 0 0 0 2.8 0l5.6-5.6a2 2 0 0 0 0-2.8zM7.5 8A1.5 1.5 0 1 1 9 6.5 1.5 1.5 0 0 1 7.5 8z"></path>
  </symbol>
  <symbol id="moon" viewBox="0 0 24 24">
    <path d="M21 14.5A8.5 8.5 0 0 1 9.5 3a7 7 0 1 0 11.5 11.5z"></path>
  </symbol>
  <symbol id="sun" viewBox="0 0 24 24">
    <path d="M12 18a6 6 0 1 0-6-6 6 6 0 0 0 6 6zm0-16v3m0 14v3m10-10h-3M5 12H2m16.95 6.95-2.12-2.12M7.17 7.17 5.05 5.05m13.9 0-2.12 2.12M7.17 16.83 5.05 18.95" stroke="currentColor" stroke-width="2" fill="none" stroke-linecap="round"></path>
  </symbol>
  <symbol id="login" viewBox="0 0 24 24">
    <path d="M10 17l1.4-1.4L8.8 13H21v-2H8.8l2.6-2.6L10 7l-7 7 7 7z"></path>
    <path d="M4 4h8V2H4a2 2 0 0 0-2 2v16a2 2 0 0 0 2 2h8v-2H4z"></path>
  </symbol>
  <symbol id="logout" viewBox="0 0 24 24">
    <path d="M14 7l-1.4 1.4L15.2 11H3v2h12.2l-2.6 2.6L14 17l7-7-7-7z"></path>
    <path d="M20 20h-8v2h8a2 2 0 0 0 2-2V4a2 2 0 0 0-2-2h-8v2h8z"></path>
  </symbol>
  <symbol id="settings" viewBox="0 0 24 24">
    <path d="M19.14 12.94a7.5 7.5 0 0 0 .05-.94 7.5 7.5 0 0 0-.05-.94l2.03-1.58a.5.5 0 0 0 .12-.63l-1.92-3.32a.5.5 0 0 0-.6-.22l-2.39.96a7.3 7.3 0 0 0-1.63-.94l-.36-2.54A.5.5 0 0 0 14.89 1h-3.78a.5.5 0 0 0-.49.41l-.36 2.54a7.3 7.3 0 0 0-1.63.94l-2.39-.96a.5.5 0 0 0-.6.22L3.72 7.47a.5.5 0 0 0 .12.63l2.03 1.58a7.5 7.5 0 0 0-.05.94 7.5 7.5 0 0 0 .05.94L3.84 14.52a.5.5 0 0 0-.12.63l1.92 3.32a.5.5 0 0 0 .6.22l2.39-.96c.5.38 1.05.7 1.63.94l.36 2.54a.5.5 0 0 0 .49.41h3.78a.5.5 0 0 0 .49-.41l.36-2.54c.58-.24 1.13-.56 1.63-.94l2.39.96a.5.5 0 0 0 .6-.22l1.92-3.32a.5.5 0 0 0-.12-.63zM12 15.5A3.5 3.5 0 1 1 15.5 12 3.5 3.5 0 0 1 12 15.5z"></path>
  </symbol>
  <symbol id="arrow-up" viewBox="0 0 24 24">
    <path d="M12 5l-7 7h4v7h6v-7h4l-7-7z"></path>
  </symbol>
  <symbol id="more-h" viewBox="0 0 24 24">
    <path d="M6 12a2 2 0 1 1-2-2 2 2 0 0 1 2 2zm8 0a2 2 0 1 1-2-2 2 2 0 0 1 2 2zm8 0a2 2 0 1 1-2-2 2 2 0 0 1 2 2z"></path>
  </symbol>
  <symbol id="dot" viewBox="0 0 24 24">
    <circle cx="12" cy="12" r="3"></circle>
  </symbol>
  <symbol id="mail" viewBox="0 0 24 24">
    <path d="M20 4H4a2 2 0 0 0-2 2v12a2 2 0 0 0 2 2h16a2 2 0 0 0 2-2V6a2 2 0 0 0-2-2zm0 4-8 5-8-5V6l8 5 8-5z"></path>
  </symbol>
  <symbol id="phone" viewBox="0 0 24 24">
    <path d="M6.6 10.8a15.6 15.6 0 0 0 6.6 6.6l2.2-2.2a1 1 0 0 1 1-.24 11.4 11.4 0 0 0 3.6.58 1 1 0 0 1 1 1V20a1 1 0 0 1-1 1A18 18 0 0 1 3 4a1 1 0 0 1 1-1h3.1a1 1 0 0 1 1 1 11.4 11.4 0 0 0 .58 3.6 1 1 0 0 1-.24 1z"></path>
  </symbol>


  <symbol id="copy" viewBox="0 0 24 24">
    <path d="M8 8V5a2 2 0 0 1 2-2h9a2 2 0 0 1 2 2v9a2 2 0 0 1-2 2h-3" fill="none" stroke="currentColor" stroke-width="2" stroke-linecap="round"/>
    <rect x="3" y="8" width="13" height="13" rx="2" ry="2" fill="none" stroke="currentColor" stroke-width="2"/>
  </symbol>
  <symbol id="save" viewBox="0 0 24 24">
    <path d="M6 3h12l3 3v15a2 2 0 0 1-2 2H6a2 2 0 0 1-2-2V5a2 2 0 0 1 2-2z" fill="none" stroke="currentColor" stroke-width="2"/>
    <path d="M8 3v6h8V3" fill="none" stroke="currentColor" stroke-width="2"/>
    <path d="M8 21v-7h8v7" fill="none" stroke="currentColor" stroke-width="2"/>
  </symbol>
  <symbol id="external-link" viewBox="0 0 24 24">
    <path d="M14 3h7v7" fill="none" stroke="currentColor" stroke-width="2" stroke-linecap="round"/>
    <path d="M21 3l-9 9" fill="none" stroke="currentColor" stroke-width="2" stroke-linecap="round"/>
    <path d="M10 7H5a2 2 0 0 0-2 2v10a2 2 0 0 0 2 2h10a2 2 0 0 0 2-2v-5" fill="none" stroke="currentColor" stroke-width="2" stroke-linecap="round"/>
  </symbol>
  <symbol id="printer" viewBox="0 0 24 24">
    <path d="M6 9V3h12v6" fill="none" stroke="currentColor" stroke-width="2"/>
    <rect x="6" y="14" width="12" height="7" fill="none" stroke="currentColor" stroke-width="2"/>
    <path d="M6 17H4a2 2 0 0 1-2-2v-3a3 3 0 0 1 3-3h14a3 3 0 0 1 3 3v3a2 2 0 0 1-2 2h-2" fill="none" stroke="currentColor" stroke-width="2"/>
  </symbol>
  <symbol id="share" viewBox="0 0 24 24">
    <path d="M4 12v7a2 2 0 0 0 2 2h12a2 2 0 0 0 2-2v-7" fill="none" stroke="currentColor" stroke-width="2"/>
    <path d="M16 6l-4-4-4 4" fill="none" stroke="currentColor" stroke-width="2" stroke-linecap="round"/>
    <path d="M12 2v14" fill="none" stroke="currentColor" stroke-width="2" stroke-linecap="round"/>
  </symbol>
  <symbol id="file-pdf" viewBox="0 0 24 24">
    <path d="M6 2h9l5 5v15a2 2 0 0 1-2 2H6a2 2 0 0 1-2-2V4a2 2 0 0 1 2-2z" fill="none" stroke="currentColor" stroke-width="2"/>
    <path d="M14 2v6h6" fill="none" stroke="currentColor" stroke-width="2"/>
    <path d="M7 15h10" fill="none" stroke="currentColor" stroke-width="2" stroke-linecap="round"/>
    <path d="M7 18h7" fill="none" stroke="currentColor" stroke-width="2" stroke-linecap="round"/>
  </symbol>
  <symbol id="play" viewBox="0 0 24 24">
    <path d="M8 5l12 7-12 7V5z" fill="currentColor"/>
  </symbol>
  <symbol id="stop" viewBox="0 0 24 24">
    <rect x="7" y="7" width="10" height="10" fill="currentColor"/>
  </symbol>
  <symbol id="download" viewBox="0 0 24 24">
    <path d="M12 3v10" fill="none" stroke="currentColor" stroke-width="2" stroke-linecap="round"/>
    <path d="M8 11l4 4 4-4" fill="none" stroke="currentColor" stroke-width="2" stroke-linecap="round"/>
    <path d="M4 20h16" fill="none" stroke="currentColor" stroke-width="2" stroke-linecap="round"/>
  </symbol>
  <symbol id="plus" viewBox="0 0 24 24">
    <path d="M12 5v14M5 12h14" fill="none" stroke="currentColor" stroke-width="2" stroke-linecap="round"/>
  </symbol>
  <symbol id="minus" viewBox="0 0 24 24">
    <path d="M5 12h14" fill="none" stroke="currentColor" stroke-width="2" stroke-linecap="round"/>
  </symbol>

</svg>
